<?xml version="1.0" standalone="no"?>
<!DOCTYPE svg PUBLIC "-//W3C//DTD SVG 20010904//EN"
 "http://www.w3.org/TR/2001/REC-SVG-20010904/DTD/svg10.dtd">
<svg version="1.0" xmlns="http://www.w3.org/2000/svg"
 width="273.000000pt" height="273.000000pt" viewBox="0 0 273.000000 273.000000"
 preserveAspectRatio="xMidYMid meet">
<metadata>
Created by potrace 1.14, written by Peter Selinger 2001-2017
</metadata>
<g transform="translate(0.000000,273.000000) scale(0.100000,-0.100000)"
fill="#000000" stroke="none">
<path d="M1801 2387 c-6 -8 -8 -17 -4 -20 3 -4 1 -7 -6 -7 -7 0 -10 -4 -7 -9
3 -4 -6 -13 -19 -19 -15 -7 -25 -8 -25 -2 0 5 -7 7 -15 4 -19 -8 -15 -35 6
-51 19 -14 30 -81 14 -87 -5 -2 0 -3 13 -3 12 1 22 6 22 11 0 5 3 6 7 3 3 -4
12 -2 20 4 10 9 17 8 29 -2 27 -22 54 -22 54 1 0 11 -5 20 -11 20 -6 0 1 20
15 44 28 48 32 61 16 51 -5 -3 -10 -1 -10 6 0 8 -4 8 -15 -1 -11 -9 -15 -9
-15 -1 0 7 -4 9 -10 6 -5 -3 -10 3 -10 15 0 11 -7 23 -15 26 -8 4 -12 10 -9
15 8 14 -12 10 -25 -4z"/>
<path d="M1207 2053 c-3 -5 -20 -10 -38 -11 -18 -1 -38 -7 -45 -13 -8 -7 -14
-6 -17 3 -4 9 -6 10 -6 1 -1 -7 -8 -10 -18 -6 -12 5 -14 3 -8 -7 5 -9 4 -11
-3 -6 -6 4 -24 0 -40 -8 -16 -8 -32 -12 -36 -9 -3 4 -6 2 -6 -4 0 -12 -37 -26
-60 -23 -8 1 -12 -1 -8 -5 4 -5 -12 -20 -35 -35 -23 -15 -54 -39 -69 -53 -16
-14 -28 -23 -28 -19 0 4 -9 -8 -20 -26 -11 -18 -27 -35 -35 -38 -8 -4 -13 -10
-10 -14 3 -5 -3 -13 -12 -19 -10 -5 -17 -12 -15 -15 1 -4 -9 -26 -24 -51 -14
-25 -27 -50 -28 -57 -1 -7 -5 -19 -9 -25 -5 -7 -10 -21 -12 -30 -2 -10 -10
-42 -18 -70 -10 -37 -11 -53 -3 -53 6 0 5 -4 -2 -9 -8 -4 -13 -11 -13 -15 1
-3 0 -5 -2 -3 -1 1 -13 -8 -26 -20 -13 -12 -28 -20 -33 -17 -4 3 -8 0 -8 -6 0
-6 -4 -9 -8 -6 -5 3 -18 -4 -30 -14 -12 -11 -26 -20 -32 -20 -5 0 -10 -4 -10
-10 0 -5 -3 -9 -8 -7 -12 3 -112 -64 -112 -76 0 -6 -3 -7 -6 -4 -4 4 -20 -5
-36 -18 -16 -14 -34 -25 -39 -25 -6 0 -7 -5 -4 -10 3 -5 1 -10 -5 -10 -13 0
-150 -127 -144 -133 3 -2 -2 -10 -11 -17 -8 -7 -15 -19 -15 -27 0 -8 -5 -11
-11 -7 -7 4 -10 1 -7 -7 3 -8 -3 -31 -13 -51 -12 -23 -15 -39 -9 -43 6 -4 8
-11 5 -16 -4 -5 -2 -9 4 -9 6 0 8 -7 5 -15 -4 -8 -1 -15 5 -15 6 0 11 -7 11
-15 0 -8 7 -15 15 -15 8 0 15 -4 15 -10 0 -5 11 -12 25 -16 14 -3 25 -10 25
-16 0 -5 5 -6 10 -3 6 3 10 1 10 -5 0 -6 6 -10 13 -9 11 2 69 -6 122 -18 43
-9 65 -10 65 -2 0 4 14 4 30 -1 17 -5 30 -5 30 -1 0 4 15 5 33 3 19 -2 50 1
70 6 27 8 37 7 37 -1 0 -7 4 -6 10 3 5 8 10 10 10 4 0 -6 7 -11 15 -11 8 0 11
5 8 10 -3 6 7 8 26 5 17 -2 31 -1 31 2 0 4 11 6 25 5 14 -2 25 0 25 4 0 4 7 8
15 8 8 0 15 -4 15 -9 0 -4 8 -4 18 1 39 19 82 29 82 19 0 -7 5 -7 13 1 8 6 17
8 20 4 4 -3 7 0 7 7 0 7 3 10 6 7 4 -3 16 -2 27 4 15 9 18 8 12 -2 -6 -8 -4
-10 5 -4 13 8 69 24 106 30 12 1 30 7 40 13 11 5 27 8 37 7 9 -2 17 0 17 4 0
7 7 9 50 13 11 1 20 6 20 11 0 5 7 7 15 4 8 -4 17 -2 20 3 4 6 15 10 26 10 10
0 19 5 19 11 0 6 11 9 24 7 13 -1 31 3 40 11 11 9 16 10 16 2 0 -12 48 14 62
34 5 6 8 4 8 -5 0 -13 1 -13 10 0 5 8 10 11 10 6 0 -5 6 -3 13 3 8 6 17 8 20
4 4 -3 7 -1 7 6 0 7 4 9 10 6 5 -3 21 1 34 10 14 9 26 16 28 15 2 -1 23 6 48
16 25 10 48 18 53 16 4 -1 7 3 7 9 0 5 5 7 10 4 6 -3 10 -2 10 4 0 6 7 8 15 5
8 -4 17 1 21 9 3 9 11 14 19 11 7 -3 19 2 28 10 8 8 17 12 21 9 3 -4 6 0 6 7
0 7 3 10 7 7 8 -9 32 24 33 46 0 9 4 17 8 17 5 0 9 6 10 13 1 28 12 61 27 83
10 16 12 24 4 24 -8 0 -7 6 3 18 9 9 14 25 13 35 -2 9 1 17 7 17 6 0 8 7 4 15
-3 8 -1 15 5 15 6 0 9 7 6 15 -4 8 -2 17 3 20 13 8 13 112 0 120 -6 4 -8 11
-5 16 4 5 2 9 -4 9 -6 0 -8 7 -5 15 4 8 1 15 -5 15 -6 0 -8 7 -5 15 4 8 1 15
-5 15 -6 0 -10 3 -9 8 1 4 -3 16 -9 28 -13 22 1 57 15 39 9 -12 42 -12 61 -1
7 5 16 5 20 -1 12 -17 57 0 46 18 -4 5 -2 9 2 9 5 0 15 21 23 48 7 26 14 50
15 55 2 4 3 8 5 10 1 1 3 9 5 18 2 12 -5 16 -26 15 -16 -1 -29 -5 -29 -11 0
-5 -5 -3 -10 5 -5 8 -10 10 -10 4 0 -6 -10 -10 -22 -9 -13 1 -31 -2 -40 -7
-12 -5 -18 -5 -18 1 0 7 -9 7 -27 0 -14 -5 -32 -8 -40 -5 -7 3 -13 1 -13 -5 0
-6 -4 -8 -8 -5 -4 2 -14 1 -22 -4 -23 -14 -121 36 -103 53 3 3 -6 9 -21 13
-14 3 -26 11 -26 17 0 6 -3 8 -6 5 -3 -3 -17 5 -31 18 -14 13 -29 21 -34 18
-5 -3 -9 -1 -9 4 0 5 -6 9 -12 9 -7 0 -29 7 -48 15 -96 42 -104 44 -95 26 4
-7 -1 -4 -9 6 -9 11 -16 15 -16 9 0 -12 -48 -5 -56 9 -3 5 -12 4 -20 -3 -8 -6
-14 -7 -14 -2 0 5 -9 9 -20 9 -11 0 -20 -3 -20 -7 0 -10 -34 -6 -41 5 -4 4 -9
4 -12 -1z m-589 -818 c3 -3 -1 -5 -8 -5 -9 0 -7 -7 6 -22 10 -12 13 -18 7 -14
-7 4 -13 3 -13 -3 0 -5 8 -15 18 -20 11 -7 13 -10 3 -11 -11 0 -10 -5 3 -25 9
-13 16 -31 16 -40 0 -8 4 -15 9 -15 8 0 12 -7 30 -62 7 -22 5 -27 -10 -31 -10
-3 -19 0 -19 5 0 6 -6 5 -15 -2 -11 -9 -15 -9 -15 -1 0 9 -5 9 -20 1 -14 -8
-20 -8 -20 0 0 8 -6 8 -20 0 -14 -8 -20 -8 -20 0 0 8 -6 8 -20 0 -14 -8 -20
-8 -20 0 0 7 -8 9 -20 5 -12 -4 -20 -2 -20 5 0 6 -4 8 -10 5 -5 -3 -10 -1 -10
4 0 6 -6 11 -13 11 -7 0 -18 9 -25 20 -7 11 -8 20 -2 20 5 0 7 6 4 14 -3 7 6
27 20 43 14 17 23 33 19 37 -3 3 -2 6 3 6 6 0 23 11 40 24 70 58 80 64 98 60
10 -2 21 -6 24 -9z"/>
<path d="M465 1984 c-11 -13 -26 -22 -32 -19 -7 2 -13 0 -13 -6 0 -6 -5 -7
-11 -3 -8 5 -8 1 0 -14 6 -12 16 -24 21 -27 6 -4 7 -13 1 -23 -14 -27 -3 -42
23 -32 25 9 44 9 61 -2 6 -3 16 0 23 8 7 8 8 14 2 14 -16 0 -12 15 10 40 25
29 25 35 0 37 -21 2 -53 27 -44 36 3 2 -1 7 -8 9 -7 3 -22 -5 -33 -18z"/>
<path d="M2107 1865 c-9 -7 -18 -24 -19 -39 -1 -14 -6 -26 -11 -26 -4 0 -5 -4
-2 -10 3 -5 1 -10 -4 -10 -6 0 -11 -5 -11 -11 0 -5 6 -7 13 -4 6 4 5 1 -3 -7
-8 -7 -17 -24 -18 -38 -2 -14 -8 -26 -12 -28 -5 -2 -6 -10 -3 -18 3 -8 0 -14
-6 -14 -6 0 -11 -14 -11 -31 0 -16 -4 -28 -9 -25 -5 3 -7 -8 -6 -24 1 -17 -1
-33 -6 -36 -5 -3 -9 -14 -9 -25 0 -10 -4 -19 -8 -19 -4 0 -9 -12 -10 -27 -1
-15 -6 -29 -11 -32 -4 -3 -7 -16 -6 -28 1 -12 -2 -20 -7 -17 -4 3 -9 -1 -10
-8 -4 -38 -31 -128 -38 -128 -3 0 -6 -8 -7 -17 -1 -10 -7 -31 -14 -48 -7 -16
-13 -37 -14 -45 -1 -8 -8 -28 -15 -45 -16 -37 -17 -40 -19 -66 0 -11 -5 -18
-10 -15 -4 3 -8 -2 -8 -12 1 -27 -26 -112 -36 -112 -4 0 -6 -4 -3 -8 3 -5 -1
-20 -9 -35 -8 -15 -10 -27 -4 -27 5 0 8 -6 6 -12 -1 -10 22 -14 86 -16 66 -2
87 0 87 10 0 7 7 25 14 41 8 15 11 27 6 27 -6 0 -1 14 9 31 11 18 17 38 14 45
-3 8 0 14 6 14 6 0 8 6 5 14 -3 8 0 17 5 21 6 3 8 11 5 17 -4 6 -2 8 4 4 5 -3
13 0 15 6 4 9 6 8 6 -2 1 -13 2 -13 11 0 6 9 10 10 10 3 0 -8 9 -9 30 -3 17 5
30 5 30 0 0 -10 19 -8 38 3 7 5 12 3 12 -3 0 -6 5 -8 11 -5 16 10 59 13 59 5
0 -10 20 -8 38 3 7 5 12 3 12 -3 0 -7 6 -8 19 0 14 7 22 7 26 0 5 -8 11 -7 21
1 11 9 14 9 14 0 0 -9 5 -9 22 0 14 8 23 8 25 2 2 -6 14 -8 27 -6 13 3 27 -1
31 -8 5 -8 4 -10 -3 -5 -7 4 -12 3 -12 -2 0 -6 7 -13 16 -16 8 -3 12 -11 9
-16 -4 -6 -2 -16 4 -23 10 -12 22 -56 24 -89 1 -9 6 -14 11 -11 5 4 7 -1 3
-10 -3 -10 -3 -17 2 -17 5 0 12 -10 16 -22 3 -13 8 -18 11 -13 2 6 39 9 90 7
l87 -4 -8 29 c-4 15 -8 34 -8 41 0 6 -3 12 -7 12 -4 0 -13 25 -20 55 -7 30
-17 55 -21 55 -5 0 -6 6 -3 14 3 8 0 17 -5 21 -6 3 -9 11 -5 16 3 6 -2 17 -12
24 -14 10 -15 14 -5 15 11 0 11 4 -2 18 -10 10 -14 22 -11 25 4 4 2 13 -4 20
-7 8 -9 16 -6 20 3 3 -2 17 -11 31 -10 14 -14 26 -10 26 4 0 2 7 -5 15 -7 8
-9 15 -6 15 4 0 1 10 -6 23 -12 22 -17 38 -20 70 -1 9 -6 17 -11 17 -5 0 -6 7
-3 15 3 9 -1 18 -10 22 -13 5 -13 7 -2 14 10 7 11 9 0 9 -7 0 -10 5 -7 10 3 6
2 10 -4 10 -5 0 -8 9 -6 19 2 11 -3 22 -11 25 -7 3 -11 12 -8 21 4 8 1 21 -5
29 -6 7 -8 16 -4 19 3 4 1 7 -5 7 -6 0 -9 7 -6 15 4 8 2 15 -3 15 -5 0 -10 14
-11 32 -2 17 -7 37 -12 43 -5 6 -11 24 -14 39 -3 16 -10 34 -15 39 -5 5 -7 16
-4 23 3 8 1 14 -4 14 -5 0 -10 6 -11 13 -2 30 -13 62 -22 65 -6 2 -8 8 -4 13
7 12 -3 11 -26 -1 -13 -7 -21 -7 -25 0 -5 8 -11 7 -21 -1 -11 -9 -14 -9 -14 0
0 7 -5 9 -11 6 -16 -10 -59 -13 -59 -5 0 9 -26 7 -36 -2 -3 -4 -16 -3 -28 2
-14 5 -28 3 -39 -5z m139 -183 c-3 -3 -1 -11 5 -19 6 -7 8 -13 4 -13 -4 0 0
-11 9 -25 12 -18 13 -25 4 -25 -9 -1 -9 -4 2 -13 8 -7 17 -23 19 -37 1 -14 6
-27 10 -30 6 -5 9 -14 14 -50 2 -11 6 -23 10 -26 4 -4 7 -17 7 -29 0 -11 4
-25 10 -31 5 -5 11 -22 12 -37 1 -15 6 -27 11 -27 5 0 7 -7 3 -15 -3 -8 -1
-15 5 -15 6 0 9 -7 5 -15 -3 -8 -1 -15 5 -15 6 0 9 -6 6 -14 -3 -8 -3 -17 1
-20 12 -13 10 -35 -4 -40 -8 -3 -14 -1 -14 3 0 11 -19 9 -37 -2 -8 -5 -13 -3
-13 3 0 8 -6 7 -21 -1 -12 -6 -24 -7 -28 -3 -7 11 -47 11 -57 2 -4 -4 -14 -4
-23 0 -20 10 -42 9 -60 -2 -8 -5 -16 -4 -20 1 -3 6 -14 9 -24 7 -14 -2 -16 2
-11 18 4 15 3 18 -6 13 -7 -4 -4 4 5 18 9 15 14 31 10 37 -3 5 -2 10 2 10 5 0
9 10 10 22 1 11 7 24 13 28 7 4 11 11 11 16 -2 22 12 74 20 74 5 0 5 7 2 17
-4 10 -2 14 4 10 7 -4 10 0 9 10 -2 10 3 32 10 49 7 17 10 34 7 38 -4 3 -2 6
4 6 9 0 26 51 28 86 0 6 6 18 13 26 6 8 9 18 5 22 -4 4 1 4 10 0 10 -3 15 -9
13 -12z"/>
<path d="M2417 1857 c-3 -9 -2 -17 3 -17 5 0 7 -9 5 -20 -2 -11 0 -20 5 -20 4
0 7 -8 6 -17 -2 -10 3 -24 11 -32 8 -7 12 -19 9 -27 -3 -7 2 -18 10 -25 10 -8
11 -15 4 -19 -6 -4 -4 -13 8 -26 10 -10 16 -27 14 -36 -4 -22 11 -23 28 -3 7
8 9 15 6 15 -4 0 0 10 8 22 9 13 16 43 16 70 0 40 -5 54 -32 83 -17 19 -37 35
-45 35 -7 0 -13 5 -13 11 0 6 -6 9 -14 6 -8 -3 -16 -1 -19 6 -2 6 -6 4 -10 -6z"/>
<path d="M1770 1059 c0 -5 -4 -8 -9 -4 -5 3 -12 1 -16 -5 -4 -6 -11 -8 -16 -5
-5 4 -9 1 -9 -5 0 -6 -4 -8 -10 -5 -5 3 -10 1 -10 -5 0 -6 -4 -8 -10 -5 -5 3
-10 2 -10 -4 0 -6 -6 -8 -14 -5 -8 3 -17 0 -21 -5 -3 -6 -11 -9 -16 -6 -5 4
-9 1 -9 -5 0 -6 -5 -8 -12 -4 -6 4 -17 -1 -25 -11 -7 -11 -13 -16 -13 -12 0 3
-15 0 -34 -8 -18 -8 -36 -11 -40 -8 -3 4 -6 2 -6 -4 0 -5 -22 -16 -50 -23 -27
-7 -50 -18 -50 -23 0 -6 -3 -8 -6 -4 -4 3 -21 0 -38 -7 -17 -7 -39 -12 -49
-10 -9 1 -15 -2 -11 -7 4 -8 -17 -14 -38 -10 -5 0 -8 -4 -8 -10 0 -5 -5 -7
-10 -4 -6 4 -22 -1 -37 -10 -14 -9 -22 -12 -19 -6 4 6 2 11 -3 11 -6 0 -11 -4
-11 -8 0 -7 -16 -11 -57 -14 -7 -1 -13 -5 -13 -10 0 -5 -5 -6 -10 -3 -6 4 -16
2 -23 -3 -7 -5 -20 -8 -29 -7 -10 2 -18 0 -18 -5 0 -5 -10 -7 -23 -6 -14 2
-24 -2 -24 -10 0 -7 4 -11 8 -9 4 3 10 -2 13 -11 4 -9 13 -14 21 -10 8 3 15 1
15 -4 0 -6 9 -10 20 -10 11 0 20 -4 20 -8 0 -5 7 -9 15 -10 8 -1 22 -3 30 -4
8 -1 15 -5 15 -10 0 -5 9 -4 19 2 11 6 22 6 25 1 7 -10 66 -21 66 -12 0 4 32
4 71 1 49 -4 73 -2 76 6 2 6 17 10 34 9 16 -1 29 2 29 7 0 5 5 6 10 3 6 -4 17
-1 25 5 8 7 15 9 15 5 0 -4 6 -2 13 4 8 6 17 8 20 4 4 -3 7 -2 7 4 0 10 30 24
55 27 6 1 12 3 15 6 26 25 62 52 56 42 -7 -11 -4 -11 12 -1 12 7 18 17 16 21
-3 4 2 8 11 8 9 0 13 5 10 10 -3 6 -1 10 5 10 15 0 41 26 33 34 -4 3 -1 6 6 6
7 0 10 4 7 9 -4 5 0 12 6 14 10 4 10 6 0 6 -9 1 -8 7 4 26 9 14 14 25 11 25
-3 0 0 15 8 34 14 32 12 46 -7 46 -4 0 -8 -5 -8 -11z"/>
<path d="M1301 522 c-1 -7 -5 -11 -9 -8 -4 3 -16 -11 -26 -29 -14 -26 -23 -32
-34 -26 -10 6 -20 4 -29 -4 -14 -15 -18 -39 -5 -31 10 6 27 -26 35 -61 3 -13
0 -23 -6 -23 -8 0 -8 -3 0 -11 7 -7 17 -8 25 -3 22 14 51 15 81 3 32 -13 45
-6 28 15 -9 11 -9 16 0 21 8 6 8 9 -1 15 -8 5 -5 13 12 26 32 26 30 48 -7 52
-30 4 -44 18 -57 57 -3 11 -6 14 -7 7z"/>
</g>
</svg>
